<?xml version="1.0" encoding="UTF-8"?>
<!DOCTYPE svg PUBLIC "-//W3C//DTD SVG 1.1//EN" "http://www.w3.org/Graphics/SVG/1.1/DTD/svg11.dtd">
<svg xmlns="http://www.w3.org/2000/svg" version="1.1" width="1024px" height="1024px" style="shape-rendering:geometricPrecision; text-rendering:geometricPrecision; image-rendering:optimizeQuality; fill-rule:evenodd; clip-rule:evenodd" xmlns:xlink="http://www.w3.org/1999/xlink">
<g><path style="opacity:1" fill="#fafafa" d="M -0.5,-0.5 C 340.833,-0.5 682.167,-0.5 1023.5,-0.5C 1023.5,340.833 1023.5,682.167 1023.5,1023.5C 682.167,1023.5 340.833,1023.5 -0.5,1023.5C -0.5,682.167 -0.5,340.833 -0.5,-0.5 Z"/></g>
<g><path style="opacity:1" fill="#020202" d="M 373.5,233.5 C 371.483,232.471 369.483,231.471 367.5,230.5C 363.718,226.755 363.551,222.755 367,218.5C 386.095,202.742 404.595,186.242 422.5,169C 446.584,150.461 473.584,138.128 503.5,132C 532.958,130.425 560.624,136.759 586.5,151C 608.614,164.448 629.614,179.448 649.5,196C 654.373,198.936 659.373,201.603 664.5,204C 668.191,208.173 669.358,213.007 668,218.5C 663.894,223.306 658.727,225.473 652.5,225C 630.148,209.824 608.148,194.158 586.5,178C 573.941,170.552 560.608,165.052 546.5,161.5C 545.304,161.846 545.304,162.346 546.5,163C 573.263,183.302 581.096,209.469 570,241.5C 558.006,265.172 538.673,277.506 512,278.5C 480.143,274.976 460.477,257.642 453,226.5C 449.473,199.906 458.306,178.573 479.5,162.5C 466.705,165.522 454.705,171.022 443.5,179C 425.358,194.642 407.691,210.809 390.5,227.5C 408.682,246.849 429.349,263.016 452.5,276C 492.468,291.262 532.468,291.262 572.5,276C 582.37,270.789 591.704,264.789 600.5,258C 611.857,247.642 622.857,236.975 633.5,226C 643.921,223.096 646.755,226.596 642,236.5C 638.706,243.594 634.54,250.094 629.5,256C 639.632,264.463 649.465,273.296 659,282.5C 664.275,289.01 663.442,294.51 656.5,299C 652.88,299.841 649.546,299.174 646.5,297C 635.719,288.187 625.219,279.02 615,269.5C 604.781,278.027 593.948,285.694 582.5,292.5C 590.851,305.848 596.351,320.181 599,335.5C 594.71,343.145 589.71,343.478 584,336.5C 577.572,323.978 571.406,311.311 565.5,298.5C 550.869,303.327 535.869,306.327 520.5,307.5C 522.251,323.116 522.751,338.782 522,354.5C 519.307,361.602 514.807,363.102 508.5,359C 507.54,357.581 506.707,356.081 506,354.5C 503.099,338.959 501.599,323.292 501.5,307.5C 488.592,307.825 476.092,305.825 464,301.5C 458.226,316.383 450.893,330.383 442,343.5C 439.005,346.265 435.505,347.098 431.5,346C 430.299,345.097 429.465,343.931 429,342.5C 428.333,338.5 428.333,334.5 429,330.5C 433.355,318.088 438.855,306.254 445.5,295C 434.717,288.391 424.051,281.558 413.5,274.5C 403.91,285.593 393.244,295.427 381.5,304C 372.947,306.17 368.78,303.004 369,294.5C 379.53,284.304 389.697,273.804 399.5,263C 389.757,253.937 381.09,244.104 373.5,233.5 Z"/></g>
<g><path style="opacity:1" fill="#f8f8f8" d="M 504.5,192.5 C 516.319,190.696 524.819,195.029 530,205.5C 531.951,222.541 524.451,231.041 507.5,231C 498.258,227.728 493.592,221.061 493.5,211C 494.506,203.141 498.172,196.975 504.5,192.5 Z"/></g>
<g><path style="opacity:1" fill="#030303" d="M 179.5,204.5 C 185.561,204.242 190.728,206.242 195,210.5C 198.703,227.31 203.036,243.977 208,260.5C 213.714,273.535 221.048,285.535 230,296.5C 251.692,317.193 273.026,338.193 294,359.5C 319.711,391.596 334.711,428.263 339,469.5C 342.802,507.103 343.802,544.77 342,582.5C 340.41,589.214 336.244,591.714 329.5,590C 320.345,585.523 311.679,580.189 303.5,574C 292.606,567.701 280.939,563.367 268.5,561C 238.183,556.172 209.183,547.172 181.5,534C 163.13,522.633 147.63,508.133 135,490.5C 130.596,483.537 127.762,476.037 126.5,468C 125.853,462.575 127.853,458.575 132.5,456C 136.548,455.566 140.548,455.566 144.5,456C 130.326,438.483 120.826,418.649 116,396.5C 114.595,389.246 115.928,382.579 120,376.5C 124.173,372.809 129.007,371.642 134.5,373C 138.046,373.854 141.38,374.854 144.5,376C 134.732,351.02 131.232,325.187 134,298.5C 138.193,284.115 145.859,281.782 157,291.5C 155.624,273.376 156.624,255.376 160,237.5C 163.478,224.518 169.978,213.518 179.5,204.5 Z"/></g>
<g><path style="opacity:1" fill="#040404" d="M 879.5,212.5 C 890.751,211.245 897.251,216.245 899,227.5C 903.576,255.15 901.076,282.15 891.5,308.5C 891.667,308.833 891.833,309.167 892,309.5C 897.229,302.637 904.062,299.137 912.5,299C 915.164,301.669 916.998,304.836 918,308.5C 922.303,338.268 914.803,364.768 895.5,388C 898.54,387.087 901.707,386.253 905,385.5C 912.422,386.807 915.922,391.307 915.5,399C 913.16,413.18 907.66,426.013 899,437.5C 892.571,445.933 885.404,453.766 877.5,461C 893.863,461.035 898.03,468.201 890,482.5C 871.071,506.438 848.238,525.605 821.5,540C 783.182,557.552 743.848,572.552 703.5,585C 695.937,588.866 688.104,592.032 680,594.5C 672.542,593.108 669.708,588.608 671.5,581C 672.8,568.2 673.467,555.367 673.5,542.5C 671.699,507.789 672.199,473.122 675,438.5C 679.876,398.801 696.376,364.968 724.5,337C 753.268,314.231 782.601,292.231 812.5,271C 826.772,258.73 840.439,245.73 853.5,232C 861.698,224.749 870.365,218.249 879.5,212.5 Z"/></g>
<g><path style="opacity:1" fill="#080808" d="M 102.5,221.5 C 106.824,221.158 108.824,223.158 108.5,227.5C 104.697,243.378 101.53,259.378 99,275.5C 96.5494,294.97 97.3828,314.303 101.5,333.5C 100.623,341.512 97.4564,342.512 92,336.5C 84.901,323.098 81.7344,308.764 82.5,293.5C 82.0871,267.422 88.7538,243.422 102.5,221.5 Z"/></g>
<g><path style="opacity:1" fill="#7e7e7d" d="M 367.5,230.5 C 369.483,231.471 371.483,232.471 373.5,233.5C 373.631,234.376 373.298,235.043 372.5,235.5C 370.479,234.145 368.812,232.479 367.5,230.5 Z"/></g>
<g><path style="opacity:1" fill="#f9f9f9" d="M 180.5,234.5 C 187.358,265.55 201.192,293.216 222,317.5C 241.025,335.526 259.692,353.859 278,372.5C 300.268,400.601 313.601,432.601 318,468.5C 322.093,498.708 323.426,529.041 322,559.5C 312.033,552.601 301.2,547.434 289.5,544C 269.833,539.667 250.167,535.333 230.5,531C 197.254,522.221 170.254,504.221 149.5,477C 156.745,478.933 164.078,480.933 171.5,483C 179.167,483.667 186.833,483.667 194.5,483C 198.007,481.139 199.173,478.305 198,474.5C 196.167,472.667 194.333,470.833 192.5,469C 162.124,450.969 142.957,424.802 135,390.5C 148.226,400.058 161.726,409.225 175.5,418C 183.616,420.516 187.782,417.683 188,409.5C 175.148,392.801 165.148,374.467 158,354.5C 156.038,343.021 154.204,331.521 152.5,320C 152.667,318.5 152.833,317 153,315.5C 156.22,323.608 160.22,331.274 165,338.5C 172.862,346.137 178.528,344.803 182,334.5C 180.875,321.749 178.875,309.082 176,296.5C 173.331,275.528 174.831,254.861 180.5,234.5 Z"/></g>
<g><path style="opacity:1" fill="#faf9fa" d="M 879.5,237.5 C 882.489,279.864 871.322,318.197 846,352.5C 843.042,358.221 844.709,361.887 851,363.5C 859.57,359.801 867.404,354.968 874.5,349C 882.803,341.698 890.803,334.031 898.5,326C 899.167,325.333 899.833,325.333 900.5,326C 891.633,361.909 872.8,391.409 844,414.5C 841.555,418.331 842.055,421.497 845.5,424C 854.63,424.886 863.297,423.219 871.5,419C 878.708,415.057 886.041,411.724 893.5,409C 874.575,437.925 850.409,461.425 821,479.5C 819.5,487.168 822.667,490.501 830.5,489.5C 843.529,488.101 856.029,484.767 868,479.5C 868.667,480.167 868.667,480.833 868,481.5C 848.303,500.183 826.137,515.35 801.5,527C 764.572,542.586 727.239,557.086 689.5,570.5C 689.167,570.167 688.833,569.833 688.5,569.5C 690.391,557.592 691.557,545.592 692,533.5C 691.899,502.455 692.899,471.455 695,440.5C 699.719,404.595 715.219,374.428 741.5,350C 772.217,326.282 803.217,302.949 834.5,280C 850,266.333 865,252.166 879.5,237.5 Z"/></g>
<g><path style="opacity:1" fill="#030303" d="M 404.5,386.5 C 408.514,386.334 412.514,386.501 416.5,387C 418.286,387.785 419.786,388.951 421,390.5C 432.463,413.739 443.63,437.073 454.5,460.5C 466.349,437.469 478.182,414.469 490,391.5C 492.827,389.039 496.16,388.039 500,388.5C 504.464,387.781 508.131,389.114 511,392.5C 513.184,397.589 514.517,402.922 515,408.5C 517.789,452.93 521.623,497.263 526.5,541.5C 523.613,552.9 516.947,555.566 506.5,549.5C 505.667,548.5 504.833,547.5 504,546.5C 500.542,507.51 497.209,468.51 494,429.5C 482.418,448.663 472.418,468.663 464,489.5C 461.755,492.907 458.588,494.24 454.5,493.5C 450.008,494.002 446.175,492.668 443,489.5C 434.807,468.783 425.807,448.45 416,428.5C 413.917,468.908 410.917,509.242 407,549.5C 404.233,555.769 399.4,558.269 392.5,557C 387.898,555.735 385.565,552.735 385.5,548C 389.878,500.214 393.711,452.38 397,404.5C 396.325,396.987 398.825,390.987 404.5,386.5 Z"/></g>
<g><path style="opacity:1" fill="#040404" d="M 615.5,436.5 C 621.448,435.528 625.948,437.528 629,442.5C 629.667,476.833 629.667,511.167 629,545.5C 628.618,560.696 624.951,575.029 618,588.5C 605.709,609.077 588.542,614.91 566.5,606C 560.583,600.817 557.75,594.317 558,586.5C 560.935,579.622 566.102,577.122 573.5,579C 576.672,580.752 579.672,582.752 582.5,585C 588.677,585.327 593.511,582.827 597,577.5C 603.403,565.821 606.903,553.321 607.5,540C 573.05,563.035 552.55,553.868 546,512.5C 543.593,489.893 542.926,467.226 544,444.5C 545.122,442.376 546.622,440.543 548.5,439C 552.167,438.333 555.833,438.333 559.5,439C 561.286,439.785 562.786,440.951 564,442.5C 565.445,465.821 567.112,489.154 569,512.5C 571.604,531.214 580.104,534.381 594.5,522C 601.398,516.039 605.565,508.539 607,499.5C 607.142,480.475 607.809,461.475 609,442.5C 610.436,439.558 612.603,437.558 615.5,436.5 Z"/></g>
<g><path style="opacity:1" fill="#040404" d="M 427.5,599.5 C 449.742,596.407 467.909,603.407 482,620.5C 487.887,628.797 489.554,637.797 487,647.5C 483.82,653.234 478.987,655.067 472.5,653C 470.376,651.878 468.543,650.378 467,648.5C 458.773,625.292 444.273,620.125 423.5,633C 402.725,654.472 393.058,680.305 394.5,710.5C 393.713,727.788 397.213,744.122 405,759.5C 418.751,782.635 437.585,788.135 461.5,776C 467.531,771.308 472.031,765.475 475,758.5C 489.753,751.546 496.419,756.212 495,772.5C 479.613,798.776 456.78,809.943 426.5,806C 398.408,796.234 381.241,776.734 375,747.5C 370.669,723.577 370.336,699.577 374,675.5C 378.932,648.127 391.765,625.294 412.5,607C 417.313,603.927 422.313,601.427 427.5,599.5 Z"/></g>
<g><path style="opacity:1" fill="#060606" d="M 516.5,606.5 C 525.176,605.096 531.01,608.429 534,616.5C 546.6,667.903 560.6,718.903 576,769.5C 592.667,720.833 609.333,672.167 626,623.5C 629.489,614.01 635.989,610.843 645.5,614C 650.15,618.574 651.65,624.074 650,630.5C 647.806,634.749 645.806,639.082 644,643.5C 625.663,696.511 607.33,749.511 589,802.5C 580.376,811.826 571.709,811.826 563,802.5C 559.032,795.603 556.032,788.27 554,780.5C 538.522,726.589 523.356,672.589 508.5,618.5C 509.234,613.118 511.901,609.118 516.5,606.5 Z"/></g>
<g><path style="opacity:1" fill="#030303" d="M 201.5,610.5 C 205.95,610.142 209.45,611.808 212,615.5C 213.881,626.839 215.881,638.172 218,649.5C 224.711,671.878 239.211,686.712 261.5,694C 264.441,698.834 263.441,702.834 258.5,706C 247.466,711.032 238.966,718.865 233,729.5C 222.149,751.233 215.816,774.233 214,798.5C 211.416,804.141 207.249,805.641 201.5,803C 198.682,788.24 195.849,773.407 193,758.5C 189.075,741.808 180.909,727.642 168.5,716C 162.564,711.365 155.897,708.365 148.5,707C 142.997,703.188 142.33,698.855 146.5,694C 171.128,687.37 186.294,671.536 192,646.5C 193.666,636.171 195.333,625.837 197,615.5C 198.025,613.313 199.525,611.646 201.5,610.5 Z"/></g>
<g><path style="opacity:1" fill="#060606" d="M 768.5,622.5 C 772.287,621.814 775.454,622.814 778,625.5C 779.053,638.818 781.72,651.818 786,664.5C 794.138,684.309 808.638,696.476 829.5,701C 833.534,705.219 833.201,709.219 828.5,713C 814.422,717.078 803.922,725.578 797,738.5C 786.932,760.105 780.598,782.771 778,806.5C 774.797,812.136 770.797,812.802 766,808.5C 764.338,784.519 758.005,761.852 747,740.5C 740.616,730.382 731.783,723.215 720.5,719C 718.15,716.627 717.983,714.127 720,711.5C 731.577,704.591 741.244,695.591 749,684.5C 757.931,666.921 762.598,648.254 763,628.5C 764.36,625.977 766.193,623.977 768.5,622.5 Z"/></g>
<g><path style="opacity:1" fill="#f9f9f9" d="M 203.5,667.5 C 207.745,674.262 212.245,680.929 217,687.5C 221.244,692.415 226.077,696.581 231.5,700C 225.627,704.575 220.794,710.075 217,716.5C 213.119,723.595 209.785,730.929 207,738.5C 201.322,722.824 191.822,709.99 178.5,700C 190.098,691.618 198.431,680.784 203.5,667.5 Z"/></g>
<g><path style="opacity:1" fill="#f8f8f8" d="M 771.5,678.5 C 779.181,690.022 788.515,700.189 799.5,709C 786.381,720.049 777.381,733.883 772.5,750.5C 767.725,735.732 759.392,723.398 747.5,713.5C 758.64,704.02 766.64,692.353 771.5,678.5 Z"/></g>
</svg>
