<svg width="96" height="96" viewBox="0 0 96 96" fill="none" xmlns="http://www.w3.org/2000/svg">
  <rect width="96" height="96" rx="18" fill="#1E1E1E"/>
  <path d="M24 30c4-7 12-10 22-6-2 5-6 9-12 12-4 2-8 0-10-6Z" fill="#45BA4B"/>
  <path d="M72 30c-4-7-12-10-22-6 2 5 6 9 12 12 4 2 8 0 10-6Z" fill="#E2574C"/>
  <path d="M23 42c7 8 17 12 25 12s18-4 25-12v11c0 17-11 29-25 29S23 70 23 53V42Z" fill="#F5F5F5"/>
  <path d="M36 55c3 3 7 4 12 4s9-1 12-4" stroke="#1E1E1E" stroke-width="4" stroke-linecap="round"/>
  <circle cx="38" cy="47" r="3" fill="#1E1E1E"/>
  <circle cx="58" cy="47" r="3" fill="#1E1E1E"/>
</svg>
